<svg xmlns="http://www.w3.org/2000/svg" version="1.1" xmlns:xlink="http://www.w3.org/1999/xlink" xmlns:svgjs="http://svgjs.dev/svgjs" width="100%" height="100%" viewBox="0 0 1000 600"><rect width="1000" height="600" x="0" y="0" fill="#262223"/><g><rect width="333.3333333333333" height="333.3333333333333" rx="13.333333333333334" ry="13.333333333333334" y="150.99764914013446" fill="#ddc6b6" transform="matrix(0.970682052651286,0,0,0.9706820526512858,0,-8.351062801817903)" x="128.7754364013672"/><path d="M223.89472153131177 392.66432032367214L164.99723690723468 392.66432032367214Q162.70516730856372 392.66432032367214 161.45758512194533 391.300683980159Q160.18098939610326 389.9370476366459 160.18098939610326 387.8480728125407L160.18098939610326 387.8480728125407L160.18098939610326 251.45542492200553Q160.18098939610326 249.16335532333457 161.45758512194533 247.79971897982148Q162.70516730856372 246.43608263630836 164.99723690723468 246.43608263630836L164.99723690723468 246.43608263630836L222.24094979556182 246.43608263630836Q237.9082609763508 246.43608263630836 247.83089139085047 251.5424655396766Q257.75352180535015 256.67786198226855 262.45371515958686 265.4399508278209Q267.1539085138236 274.2310532125969 267.1539085138236 285.0821168822545L267.1539085138236 285.0821168822545Q267.1539085138236 293.641110953241 264.3395952091263 299.8209948078856Q261.4962683652053 305.9718651233065 257.3183187169949 309.8306658400563Q253.1403690687845 313.6894665568062 249.1945277343636 315.77844138091143L249.1945277343636 315.77844138091143Q257.3183187169949 319.753296254556 263.70129734620525 328.74749341389787Q270.0842759754156 337.712677034016 270.0842759754156 350.47863429243665L270.0842759754156 350.47863429243665Q270.0842759754156 361.96799582501524 264.8618389151526 371.5714773080544Q259.63940185488957 381.17495879109356 249.28156835203464 386.9196395573829Q238.9527483884034 392.66432032367214 223.89472153131177 392.66432032367214L223.89472153131177 392.66432032367214ZM180.66454808802365 324.975733314819L180.66454808802365 375.7494269562648L221.1964623835092 375.7494269562648Q234.5717039656272 375.7494269562648 241.88311584999542 368.4380150718966Q249.1945277343636 361.1266031875284 249.1945277343636 350.47863429243665L249.1945277343636 350.47863429243665Q249.1945277343636 339.39546230898964 241.88311584999542 332.20010458151614Q234.5717039656272 324.975733314819 221.1964623835092 324.975733314819L221.1964623835092 324.975733314819L180.66454808802365 324.975733314819ZM180.66454808802365 263.3509760037157L180.66454808802365 308.2639347219775L219.10748755940403 308.2639347219775Q232.48272914152201 308.2639347219775 239.35893793753496 302.1130644065566Q246.26416027277156 295.933180551912 246.26416027277156 285.2852116568203L246.26416027277156 285.2852116568203Q246.26416027277156 274.6372427617285 239.35893793753496 269.00861615233396Q232.48272914152201 263.3509760037157 219.10748755940403 263.3509760037157L219.10748755940403 263.3509760037157L180.66454808802365 263.3509760037157ZM311.86377245751953 392.66432032367214L301.82508788612506 392.66432032367214Q299.73611306201985 392.66432032367214 298.3724767185068 391.300683980159Q297.00884037499367 389.9370476366459 297.00884037499367 387.8480728125407L297.00884037499367 387.8480728125407L297.00884037499367 288.8538769813333Q297.00884037499367 286.7649021572281 298.3724767185068 285.401265813715Q299.73611306201985 284.0376294702019 301.82508788612506 284.0376294702019L301.82508788612506 284.0376294702019L311.86377245751953 284.0376294702019Q313.95274728162474 284.0376294702019 315.2873700859141 285.401265813715Q316.65100642942724 286.7649021572281 316.65100642942724 288.8538769813333L316.65100642942724 288.8538769813333L316.65100642942724 387.8480728125407Q316.65100642942724 389.9370476366459 315.2873700859141 391.300683980159Q313.95274728162474 392.66432032367214 311.86377245751953 392.66432032367214L311.86377245751953 392.66432032367214ZM313.3144494187037 263.78617909207094L300.1423026111514 263.78617909207094Q298.05332778704627 263.78617909207094 296.7187049827568 262.4225427485578Q295.3550686392437 261.0589064050447 295.3550686392437 258.96993158093954L295.3550686392437 258.96993158093954L295.3550686392437 247.68366482292674Q295.3550686392437 245.59468999882154 296.7187049827568 244.14401303763736Q298.05332778704627 242.6643225372295 300.1423026111514 242.6643225372295L300.1423026111514 242.6643225372295L313.3144494187037 242.6643225372295Q315.40342424280885 242.6643225372295 316.854101203993 244.14401303763736Q318.3337917044009 245.59468999882154 318.3337917044009 247.68366482292674L318.3337917044009 247.68366482292674L318.3337917044009 258.96993158093954Q318.3337917044009 261.0589064050447 316.854101203993 262.4225427485578Q315.40342424280885 263.78617909207094 313.3144494187037 263.78617909207094L313.3144494187037 263.78617909207094ZM425.91599514581844 392.66432032367214L345.4904644177684 392.66432032367214Q343.4014895936632 392.66432032367214 342.0378532501501 391.300683980159Q340.674216906637 389.9370476366459 340.674216906637 387.8480728125407L340.674216906637 387.8480728125407L340.674216906637 380.5366609281725Q340.674216906637 378.6797944178568 341.6316637010185 376.9970091428832Q342.56009695617644 375.3142238679095 343.60458436822904 373.8635469067254L343.60458436822904 373.8635469067254L401.25448680568775 300.5463332884777L347.37634446730783 300.5463332884777Q345.2873696432027 300.5463332884777 343.92373329968956 299.2987511018593Q342.56009695617644 298.0221553760172 342.56009695617644 295.7300857773463L342.56009695617644 295.7300857773463L342.56009695617644 288.8538769813333Q342.56009695617644 286.7649021572281 343.92373329968956 285.401265813715Q345.2873696432027 284.0376294702019 347.37634446730783 284.0376294702019L347.37634446730783 284.0376294702019L421.738045497608 284.0376294702019Q423.82702032171323 284.0376294702019 425.19065666522636 285.401265813715Q426.5252794695158 286.7649021572281 426.5252794695158 288.8538769813333L426.5252794695158 288.8538769813333L426.5252794695158 296.5714784148331Q426.5252794695158 298.4573584643725 425.5968462143579 299.90803542555665Q424.66841295920017 301.3877259259645 423.62392554714756 303.04149766171446L423.62392554714756 303.04149766171446L366.58330743338615 376.1556165053964L425.91599514581844 376.1556165053964Q428.20806474448943 376.1556165053964 429.4556469311078 377.40319869201477Q430.7032291177262 378.6797944178568 430.7032291177262 380.9718640165278L430.7032291177262 380.9718640165278L430.7032291177262 387.8480728125407Q430.7032291177262 389.9370476366459 429.4556469311078 391.300683980159Q428.20806474448943 392.66432032367214 425.91599514581844 392.66432032367214L425.91599514581844 392.66432032367214Z " fill="#262223" transform="matrix(0.970682052651286,0,0,0.9706820526512858,0,-8.351062801817903)"/><path d="M599.3153343291178 390.55164079896906L550.3129895440818 390.55164079896906Q547.9949145512567 390.55164079896906 546.7331775298455 389.17253289184526Q545.4420977870063 387.7934249847215 545.4420977870063 385.68074904189365L545.4420977870063 385.68074904189365L545.4420977870063 247.7406156080887Q545.4420977870063 245.42254061526364 546.7331775298455 244.04343270813987Q547.9949145512567 242.6643248010161 550.3129895440818 242.6643248010161L550.3129895440818 242.6643248010161L598.2589963577038 242.6643248010161Q620.0312956574024 242.6643248010161 633.3528911857895 249.20775167949697Q646.6451439927483 255.75117855797782 652.7777727712349 268.5446051006579Q658.9104015497214 281.33803164333796 659.1158005997186 299.91197430736656L659.1158005997186 299.91197430736656Q659.3211996497157 309.4190160500921 659.3211996497157 316.6079827999926Q659.3211996497157 323.7969495498931 659.1158005997186 333.09859224262146L659.1158005997186 333.09859224262146Q658.7050024997243 352.52347382806687 652.6604018855222 365.31690037074696Q646.6451439927483 378.0809841919988 633.6463184000711 384.33098385619803Q620.676835528822 390.55164079896906 599.3153343291178 390.55164079896906L599.3153343291178 390.55164079896906ZM566.158059115291 260.62207031505324L566.158059115291 372.59389528493193L598.2589963577038 372.59389528493193Q612.842328907502 372.59389528493193 621.4984317288107 368.57394244927326Q630.1838772715477 364.55398961361465 634.0864592214937 355.69248774230874Q637.9890411714396 346.83098587100284 638.1944402214367 332.24765332120467L638.1944402214367 332.24765332120467Q638.6345810428593 325.909625492721 638.6345810428593 321.1561046213582Q638.6345810428593 316.4025837499954 638.6345810428593 311.64906287863266Q638.6345810428593 306.89554200726985 638.1944402214367 300.76291322878336L638.1944402214367 300.76291322878336Q637.7836421214424 280.28169367192396 628.4819994287141 270.45188199348866Q619.1803567359857 260.62207031505324 597.2026583862898 260.62207031505324L597.2026583862898 260.62207031505324L566.158059115291 260.62207031505324ZM732.2085196772783 392.664316741797L732.2085196772783 392.664316741797Q710.2308213275825 392.664316741797 697.349366620618 379.2546930491255Q684.4679119136534 365.8450693564539 683.2061748922423 342.60563398534697L683.2061748922423 342.60563398534697Q683.0007758422452 339.8474181710995 683.0007758422452 335.504695399731Q683.0007758422452 331.1913153497907 683.2061748922423 328.4330995355432L683.2061748922423 328.4330995355432Q684.057113813659 313.43896888575074 690.1603998707175 302.1420211359071Q696.293028649204 290.84507338606346 706.9737792490562 284.71244460757697Q717.6251871274801 278.5798158290904 732.0031206272812 278.5798158290904L732.0031206272812 278.5798158290904Q748.0535892484876 278.5798158290904 758.9397388983368 285.3286417575684Q769.8258885481862 292.1068104074746 775.5183765052502 304.57746701444484Q781.2402071837424 317.0187808999869 781.2402071837424 333.71478939261294L781.2402071837424 333.71478939261294L781.2402071837424 337.3239441282773Q781.2402071837424 339.64201912110235 779.8610992766187 340.90375614251343Q778.481991369495 342.16549316392457 776.369315426667 342.16549316392457L776.369315426667 342.16549316392457L703.2765963491073 342.16549316392457Q703.2765963491073 342.3708922139217 703.2765963491073 343.01643208534136Q703.2765963491073 343.66197195676096 703.2765963491073 344.07277005675525L703.2765963491073 344.07277005675525Q703.6873944491016 352.728872878064 707.0618074133406 360.24060956367435Q710.4655630990078 367.7230035278565 716.891619091776 372.38849623493473Q723.3470178059723 377.0246462205849 732.0031206272812 377.0246462205849L732.0031206272812 377.0246462205849Q739.602885477176 377.0246462205849 744.6791762842485 374.70657122775987Q749.7554670913211 372.38849623493473 752.9244810055629 369.5422522564027Q756.0934949198048 366.6666655564425 757.1498328912187 364.9941304350371L757.1498328912187 364.9941304350371Q759.0571097840495 362.44131367078677 760.1134477554634 361.91314468507977Q761.1697857268774 361.3849756993728 763.4878607197024 361.3849756993728L763.4878607197024 361.3849756993728L773.8458413838448 361.3849756993728Q775.7237755552474 361.3849756993728 777.1028834623711 362.5586845564994Q778.481991369495 363.732393413626 778.2765923194978 365.8450693564539L778.2765923194978 365.8450693564539Q778.0711932695007 369.0140832706957 774.9021793552587 373.5328623706332Q771.7331654410169 378.0809841919988 765.9233065982402 382.5117351276518Q760.1134477554634 386.9718287847329 751.5453730984392 389.818072763265Q742.977298441415 392.664316741797 732.2085196772783 392.664316741797ZM703.2765963491073 326.9659634641349L703.2765963491073 327.5821606141264L761.1697857268774 327.5821606141264L761.1697857268774 326.9659634641349Q761.1697857268774 317.45892172140935 757.6780018769257 310.0645559215117Q754.1862180269741 302.6701901216141 747.6427911484932 298.3274673502456Q741.0993642700123 294.01408730030533 732.0031206272812 294.01408730030533L732.0031206272812 294.01408730030533Q722.9068769845499 294.01408730030533 716.4808209917817 298.3274673502456Q710.0254222775853 302.6701901216141 706.6510093133463 310.0645559215117Q703.2765963491073 317.45892172140935 703.2765963491073 326.9659634641349L703.2765963491073 326.9659634641349ZM853.8927854398796 390.55164079896906L844.8258845185766 390.55164079896906Q841.6568706043348 390.55164079896906 839.8669645972167 389.08450472756084Q838.0477158686704 387.5880259347244 836.9913778972565 385.2699509418993L836.9913778972565 385.2699509418993L797.9068729549404 287.2359186503991Q797.496074854946 286.1795806789852 797.496074854946 285.12324270757125L797.496074854946 285.12324270757125Q797.496074854946 283.2159658147405 798.7578118763571 281.95422879332943Q800.0195488977682 280.6924917719183 801.926825790599 280.6924917719183L801.926825790599 280.6924917719183L812.0794074047441 280.6924917719183Q814.3974823975692 280.6924917719183 815.6592194189803 281.95422879332943Q816.9209564403915 283.2159658147405 817.3610972618139 284.27230378615445L817.3610972618139 284.27230378615445L849.4620345042267 367.5176044778593L881.5923144680677 284.27230378615445Q882.003112568062 283.2159658147405 883.1768214251886 281.95422879332943Q884.3211875608871 280.6924917719183 886.6392625537121 280.6924917719183L886.6392625537121 280.6924917719183L896.9972432178544 280.6924917719183Q898.6991210606881 280.6924917719183 900.0782289678118 281.95422879332943Q901.4279941535075 283.2159658147405 901.4279941535075 285.12324270757125L901.4279941535075 285.12324270757125Q901.4279941535075 286.1795806789852 901.017196053513 287.2359186503991L901.017196053513 287.2359186503991L861.7272920611998 385.2699509418993Q860.876353139783 387.5880259347244 859.0864471326648 389.08450472756084Q857.2965411255469 390.55164079896906 853.8927854398796 390.55164079896906L853.8927854398796 390.55164079896906Z " fill="#ddc6b6" transform="matrix(0.970682052651286,0,0,0.9706820526512858,0,-8.351062801817903)"/></g></svg>